PathFileType	4	(X/Y/Z)	/Users/visionmauri/Downloads/Videos/OAW02-top_Sports2D/OAW02-top_Sports2D_px_person00.trc
DataRate	CameraRate	NumFrames	NumMarkers	Units	OrigDataRate	OrigDataStartFrame	OrigNumFrames
30.0	30.0	6	22	m	30.0	809	2158
Frame#	Time	Hip			RHip			RKnee			RAnkle			RBigToe			RSmallToe			RHeel			LHip			LKnee			LAnkle			LBigToe			LSmallToe			LHeel			Neck			Head			Nose			RShoulder			RElbow			RWrist			LShoulder			LElbow			LWrist			
		X1	Y1	Z1	X2	Y2	Z2	X3	Y3	Z3	X4	Y4	Z4	X5	Y5	Z5	X6	Y6	Z6	X7	Y7	Z7	X8	Y8	Z8	X9	Y9	Z9	X10	Y10	Z10	X11	Y11	Z11	X12	Y12	Z12	X13	Y13	Z13	X14	Y14	Z14	X15	Y15	Z15	X16	Y16	Z16	X17	Y17	Z17	X18	Y18	Z18	X19	Y19	Z19	X20	Y20	Z20	X21	Y21	Z21	X22	Y22	Z22
809	26.979168598361923	615.5308664552053	774.8644802975522	0.0	627.1006978328589	776.823864716286	0.0	627.2672488056437	811.5613210719611	0.0	623.1817171534245	842.585195363216	0.0	622.7722905299966	860.9735282734491	0.0	628.8476598255961	860.2040591337555	0.0	620.9382227824356	850.2867405531229	0.0	605.9714739360642	776.9536398554592	0.0	607.8390911710378	814.3014930777975	0.0	608.9615607255895	850.8373690104704	0.0	612.9300738214198	861.7077918530181	0.0	606.3020520892748	862.3208873488946	0.0	608.7863934585026	860.9940435785754	0.0	617.675916262759	706.6969296235195	0.0	618.2361737897863	684.1398142618979	0.0	617.4501261721857	697.0252602382709	0.0	635.9948778343653	719.9545719094543	0.0	645.4766876741811	750.0722017751432	0.0	649.1226191137424	774.7221946709936	0.0	597.7725644702865	718.4254104989221	0.0	587.7586641668694	746.0014271854773	0.0	581.9525005767924	771.5702223588014	0.0
810	27.012517385257304	615.705988034326	774.6161349928246	0.0	627.2098382773768	776.2881743087739	0.0	627.6584858892429	811.4873988284091	0.0	623.5780555516013	844.1363551464075	0.0	624.5255693191828	859.1052227204395	0.0	629.646314069374	858.9586895232912	0.0	621.4034503392091	852.3570082637297	0.0	606.3556530570731	776.5408570106936	0.0	607.8985387118005	814.3043307073311	0.0	608.9524204932816	850.919169719117	0.0	612.4855573165113	861.4694788037488	0.0	606.0788662638437	861.9701485961913	0.0	608.6393365090206	860.5217341707959	0.0	617.6844273230172	706.2779622722695	0.0	618.2474796145887	683.2183384773446	0.0	617.4968485574593	697.151624830486	0.0	636.0108730543429	719.570640845005	0.0	645.5046647985534	749.8105406842577	0.0	649.1563128745686	774.8445295256265	0.0	598.0377177584575	718.5147477689163	0.0	587.4224203984553	745.5994140500488	0.0	581.6950699042993	770.7157128881507	0.0
811	27.04586617215268	615.8345419077447	774.53165236353	0.0	627.2967377009995	775.9397005463474	0.0	627.9484421276226	811.4755555833722	0.0	623.871870460989	845.7014016888744	0.0	626.5704736630728	857.6736981216259	0.0	630.5850114378641	858.2450910104823	0.0	621.7757580050627	853.5125691050238	0.0	606.3018746807223	776.361551058358	0.0	608.0637967948197	813.8799331284845	0.0	608.960480751425	850.9553073423629	0.0	612.4555740289966	860.8527786680004	0.0	606.034403062037	861.7223871509887	0.0	608.7151104655151	860.393856992085	0.0	617.6887701964507	706.2597472100761	0.0	618.1861030397148	682.3348930087732	0.0	616.947934767288	697.1057879073204	0.0	635.9856867287369	719.3580163431768	0.0	645.537796379701	749.6456010437192	0.0	649.308468665487	774.9773586445442	0.0	598.1691400943748	718.6388106817806	0.0	587.2874409279839	745.4843772989697	0.0	581.3434289044176	770.2483170570459	0.0
812	27.079214959048063	615.9763225856722	774.5302749424503	0.0	627.4536593755337	775.7757778751119	0.0	628.2162095034979	811.3408471637858	0.0	623.9745657698068	846.5227053282745	0.0	628.3592826935254	856.073871187302	0.0	631.3040858774864	857.1595716984003	0.0	621.9207646644218	853.5188834182118	0.0	606.0848957881611	776.3234897649858	0.0	608.27798375466	813.2551049567162	0.0	608.9936248254766	850.753077036913	0.0	612.5098678277781	860.0806641904475	0.0	606.0353652292061	861.6168768863602	0.0	608.9150548837076	860.2538498313035	0.0	617.7603414470494	706.7210528031706	0.0	618.1264037096753	681.7302909024082	0.0	615.815679055596	696.8628500905805	0.0	636.1196597695875	719.4273925939847	0.0	645.5662820232084	749.5190912300695	0.0	649.470653415087	775.1417945972148	0.0	598.1523368793027	718.6939404174743	0.0	587.149379918247	745.4678644310068	0.0	581.2263321517127	770.2152088037549	0.0
813	27.11256374594344	616.1197939805197	774.4530124974418	0.0	627.7193575923501	775.7835565826701	0.0	628.574770561689	810.8475920402047	0.0	623.9939573468857	846.2276428680383	0.0	630.0551271681189	853.6208931617367	0.0	632.0814763316743	855.0210558685652	0.0	621.9229856017929	852.9870023565887	0.0	606.0683735419502	776.3230250940185	0.0	608.4362052266359	812.9622564383146	0.0	609.064934379963	850.4374093329052	0.0	612.3953141200697	859.5834511117864	0.0	606.0301848141454	861.5095116927038	0.0	608.9950999697755	859.6593459716534	0.0	617.9294673868488	707.272293613698	0.0	618.2641624272268	681.5008577806344	0.0	614.7908515552909	696.592306501094	0.0	636.4348958514743	719.6364704600563	0.0	645.586585610733	749.477711897527	0.0	649.7763329813282	775.2310909496305	0.0	598.2645263622991	718.6720069150184	0.0	587.0590073278968	745.4325609851498	0.0	581.6522308576372	770.049177453758	0.0
814	27.14591253283882	616.1848525536134	774.3282241128478	0.0	628.0299566072198	775.9605912337697	0.0	629.0716697696049	810.11900971805	0.0	624.1730917349544	845.4559766363263	0.0	632.3337305067788	851.0664291723884	0.0	633.5564657752484	852.7907793434032	0.0	622.0076336831386	852.6406615868916	0.0	606.184176691026	776.38773801983	0.0	608.5643274780475	813.1240134781114	0.0	609.1888889095706	850.3243515078348	0.0	612.4142052708644	859.4710586148703	0.0	606.1944268019523	861.2418589365503	0.0	608.927503414639	858.8082833116971	0.0	618.1769226318308	707.6727233477425	0.0	618.719471311763	681.767312291965	0.0	614.5679019322104	696.5982059261189	0.0	636.7624478595653	719.8784366219036	0.0	645.582609135108	749.6256053640775	0.0	650.3943139453772	775.0835951315646	0.0	598.6638834668539	718.5875854010723	0.0	587.2137112275472	745.3799152129217	0.0	582.5370279906775	769.4077831947874	0.0
